<svg width="267" height="34" viewBox="0 0 267 34" fill="none" xmlns="http://www.w3.org/2000/svg">
<path d="M0.5 0.0185547H13.6146C15.9346 0.0185547 18.1204 0.47271 20.1528 1.39994C22.1852 2.32718 23.9683 3.55718 25.483 5.07103C26.9977 6.6038 28.2056 8.38258 29.0876 10.4263C29.9696 12.47 30.3914 14.5894 30.3914 16.8223C30.3914 19.0174 29.9696 21.1368 29.1068 23.1805C28.244 25.2242 27.0552 27.0029 25.5405 28.5546C24.0258 30.1063 22.2427 31.3363 20.2103 32.2636C18.1779 33.1908 15.973 33.6449 13.6338 33.6449H0.519173V0.0185547H0.5Z" fill="#3693FF"/>
<path d="M32.561 25.2434C27.8513 25.2434 24.0452 21.4967 24.0452 16.8794C24.0452 12.2622 27.8706 8.51541 32.561 8.51541C35.1368 8.51541 37.0591 9.23448 39.116 10.6916L40.5 1.94908C38.1164 0.700156 35.4059 0 32.5225 0C23.0841 0 15.4333 7.5314 15.4333 16.8037C15.4333 16.8227 15.4333 16.8416 15.4333 16.8794C15.4333 16.8983 15.4333 16.9173 15.4333 16.9551C15.4333 26.2464 23.0841 33.7778 32.5225 33.7778C35.4059 33.7778 38.1164 33.0776 40.5 31.8287L39.116 23.0862C37.0591 24.5433 35.1368 25.2434 32.561 25.2434Z" fill="#FF2734"/>
<path d="M23.9931 16.9076C23.9931 13.6696 25.8697 10.8671 28.5889 9.4659C27.7655 7.83743 26.7314 6.37939 25.4676 5.09177C24.6633 4.27753 23.8016 3.57692 22.8633 2.93311C18.3823 5.96281 15.4333 11.0565 15.4333 16.8319C15.4333 16.8508 15.4333 16.8697 15.4333 16.9076C15.4333 16.9265 15.4333 16.9455 15.4333 16.9833C15.4333 22.7398 18.344 27.8145 22.8058 30.8442C23.7824 30.1815 24.6825 29.443 25.5059 28.6098C26.7506 27.3601 27.7655 25.921 28.5506 24.3493C25.8506 22.9291 24.0122 20.1267 23.9931 16.9076Z" fill="#010D6D"/>
<path d="M54.844 23.9722V12.5322H58.908C62.508 12.5322 64.812 14.6282 64.812 18.2282C64.812 21.8282 62.508 23.9722 58.908 23.9722H54.844ZM57.644 21.5722H58.796C60.732 21.5722 61.916 20.4202 61.916 18.2282C61.916 16.0522 60.684 14.9322 58.796 14.9322H57.644V21.5722ZM65.8695 19.8442C65.8695 17.4282 67.5015 15.5402 70.1575 15.5402C72.5895 15.5402 73.9655 17.2362 73.9655 19.5242C73.9655 19.7962 73.9015 20.3882 73.9015 20.3882H68.7015C68.9095 21.3962 69.7415 21.8602 70.6215 21.8602C71.8055 21.8602 72.8935 21.0282 72.8935 21.0282L73.9175 22.9642C73.9175 22.9642 72.5895 24.1642 70.3975 24.1642C67.4535 24.1642 65.8695 22.0362 65.8695 19.8442ZM68.7655 18.8042H71.1815C71.1815 18.1802 70.7495 17.6202 70.0935 17.6202C69.2935 17.6202 68.9095 18.1962 68.7655 18.8042ZM74.8371 22.9482L76.0211 21.0922C76.0211 21.0922 76.9331 21.9242 78.1171 21.9242C78.5331 21.9242 78.9331 21.8122 78.9331 21.5402C78.9331 20.8202 75.0771 20.7402 75.0771 18.0522C75.0771 16.5002 76.5651 15.5402 78.4691 15.5402C80.3891 15.5402 81.3651 16.4842 81.3651 16.4842L80.4211 18.4522C80.4211 18.4522 79.6211 17.7802 78.4691 17.7802C78.0531 17.7802 77.6531 17.8922 77.6531 18.1802C77.6531 18.8042 81.5091 18.9002 81.5091 21.5562C81.5091 22.9642 80.2611 24.1642 78.1331 24.1642C76.0691 24.1642 74.8371 22.9482 74.8371 22.9482ZM83.0404 14.6922V12.5322H85.7444V14.6922H83.0404ZM83.0084 23.9722V15.7322H85.7764V23.9722H83.0084ZM88.8449 24.5002C88.8449 24.5002 89.8689 25.0282 91.1649 25.0282C92.1569 25.0282 93.0689 24.6602 93.0689 23.4442V23.1722C93.0689 23.0762 93.0849 22.8682 93.0849 22.8682H93.0529C92.5729 23.4442 91.9489 23.7322 90.9889 23.7322C88.5089 23.7322 87.2769 21.7002 87.2769 19.5882C87.2769 17.4922 88.4769 15.5402 90.9729 15.5402C92.4769 15.5402 93.2129 16.3402 93.2129 16.3402H93.2609C93.2609 16.3402 93.2449 16.2442 93.2449 16.1482V15.7322H95.8369V23.2202C95.8369 26.2282 93.4369 27.3322 91.1809 27.3322C90.0769 27.3322 88.8609 27.0122 88.0609 26.5962L88.8449 24.5002ZM91.6449 21.4282C92.3649 21.4282 93.1329 21.0602 93.1329 19.6202C93.1329 18.1642 92.3649 17.8442 91.5329 17.8442C90.5569 17.8442 90.0609 18.5482 90.0609 19.4922C90.0609 20.5162 90.5409 21.4282 91.6449 21.4282ZM97.8834 23.9722V15.7322H100.539V16.4522C100.539 16.7242 100.507 16.9642 100.507 16.9642H100.539C100.923 16.3242 101.707 15.5402 103.163 15.5402C104.827 15.5402 106.123 16.3082 106.123 18.6282V23.9722H103.355V19.1402C103.355 18.3722 103.051 18.0522 102.443 18.0522C101.579 18.0522 101.051 18.5322 100.811 19.2362C100.699 19.5562 100.651 19.9242 100.651 20.3242V23.9722H97.8834ZM111.248 18.2282C111.248 14.9002 113.808 12.3402 117.248 12.3402C120.08 12.3402 121.536 13.9562 121.536 13.9562L120.24 16.0682C120.24 16.0682 118.96 14.9002 117.376 14.9002C115.184 14.9002 114.144 16.5162 114.144 18.1642C114.144 19.8602 115.264 21.6042 117.376 21.6042C119.104 21.6042 120.416 20.1962 120.416 20.1962L121.856 22.2442C121.856 22.2442 120.24 24.1642 117.248 24.1642C113.664 24.1642 111.248 21.6202 111.248 18.2282ZM122.619 19.8762C122.619 17.2842 124.699 15.5402 127.275 15.5402C129.883 15.5402 131.963 17.2842 131.963 19.8762C131.963 22.4522 129.883 24.1642 127.291 24.1642C124.699 24.1642 122.619 22.4522 122.619 19.8762ZM125.419 19.8762C125.419 21.1082 126.283 21.8602 127.291 21.8602C128.299 21.8602 129.163 21.1082 129.163 19.8762C129.163 18.6282 128.299 17.8442 127.291 17.8442C126.283 17.8442 125.419 18.6282 125.419 19.8762ZM133.399 23.9722V15.7322H136.055V16.4522C136.055 16.7242 136.023 16.9642 136.023 16.9642H136.055C136.439 16.3882 137.207 15.5402 138.503 15.5402C139.543 15.5402 140.375 16.0042 140.807 16.9322H140.839C141.271 16.2442 142.247 15.5402 143.479 15.5402C144.983 15.5402 146.151 16.3562 146.151 18.6282V23.9722H143.383V19.0922C143.383 18.4842 143.271 18.0522 142.743 18.0522C141.863 18.0522 141.399 18.6922 141.223 19.6042C141.159 19.8922 141.159 20.2282 141.159 20.5642V23.9722H138.391V19.0922C138.391 18.4842 138.279 18.0522 137.751 18.0522C136.887 18.0522 136.439 18.6602 136.247 19.5402C136.183 19.8442 136.167 20.2122 136.167 20.5642V23.9722H133.399ZM148.087 27.1722V15.7322H150.583V16.1482C150.583 16.4202 150.551 16.6762 150.551 16.6762H150.583C150.583 16.6762 151.335 15.5402 153.079 15.5402C155.319 15.5402 156.791 17.3002 156.791 19.8602C156.791 22.4682 155.142 24.1642 152.951 24.1642C151.607 24.1642 150.855 23.3802 150.855 23.3802H150.823C150.823 23.3802 150.855 23.6682 150.855 24.0842V27.1722H148.087ZM150.775 19.9082C150.775 20.9002 151.303 21.8762 152.391 21.8762C153.255 21.8762 154.007 21.1722 154.007 19.9082C154.007 18.6762 153.351 17.8762 152.391 17.8762C151.559 17.8762 150.775 18.4842 150.775 19.9082ZM157.682 19.8442C157.682 17.4282 159.314 15.5402 161.97 15.5402C164.402 15.5402 165.778 17.2362 165.778 19.5242C165.778 19.7962 165.714 20.3882 165.714 20.3882H160.514C160.722 21.3962 161.554 21.8602 162.434 21.8602C163.618 21.8602 164.706 21.0282 164.706 21.0282L165.73 22.9642C165.73 22.9642 164.402 24.1642 162.21 24.1642C159.266 24.1642 157.682 22.0362 157.682 19.8442ZM160.578 18.8042H162.994C162.994 18.1802 162.562 17.6202 161.906 17.6202C161.106 17.6202 160.722 18.1962 160.578 18.8042ZM167.706 20.9322V18.0362H166.65V15.8762H167.786V13.5082H170.474V15.8762H172.202V18.0362H170.474V20.5642C170.474 21.4922 171.418 21.6202 171.946 21.6202C172.17 21.6202 172.314 21.6042 172.314 21.6042V24.0042C172.314 24.0042 172.01 24.0522 171.562 24.0522C170.25 24.0522 167.706 23.7002 167.706 20.9322ZM173.338 19.8442C173.338 17.4282 174.97 15.5402 177.626 15.5402C180.058 15.5402 181.434 17.2362 181.434 19.5242C181.434 19.7962 181.37 20.3882 181.37 20.3882H176.17C176.378 21.3962 177.21 21.8602 178.09 21.8602C179.274 21.8602 180.362 21.0282 180.362 21.0282L181.386 22.9642C181.386 22.9642 180.058 24.1642 177.866 24.1642C174.922 24.1642 173.338 22.0362 173.338 19.8442ZM176.234 18.8042H178.65C178.65 18.1802 178.218 17.6202 177.562 17.6202C176.762 17.6202 176.378 18.1962 176.234 18.8042ZM182.946 23.9722V15.7322H185.602V16.4522C185.602 16.7242 185.57 16.9642 185.57 16.9642H185.602C185.986 16.3242 186.77 15.5402 188.226 15.5402C189.89 15.5402 191.186 16.3082 191.186 18.6282V23.9722H188.418V19.1402C188.418 18.3722 188.114 18.0522 187.506 18.0522C186.642 18.0522 186.114 18.5322 185.874 19.2362C185.762 19.5562 185.714 19.9242 185.714 20.3242V23.9722H182.946ZM192.51 19.8442C192.51 17.6362 194.142 15.5402 197.102 15.5402C199.342 15.5402 200.382 16.7882 200.382 16.7882L199.214 18.6442C199.214 18.6442 198.414 17.8442 197.278 17.8442C195.966 17.8442 195.31 18.8362 195.31 19.8122C195.31 20.7882 195.982 21.8602 197.374 21.8602C198.526 21.8602 199.63 20.8682 199.63 20.8682L200.638 22.8042C200.638 22.8042 199.406 24.1642 197.102 24.1642C194.158 24.1642 192.51 22.1162 192.51 19.8442ZM200.922 26.7562L201.802 24.7242C201.802 24.7242 202.25 25.0282 202.65 25.0282C203.098 25.0282 203.69 24.9002 203.978 24.1962L204.138 23.8122L200.634 15.7322H203.77L204.986 19.5242C205.13 19.9722 205.29 20.8042 205.29 20.8042H205.322C205.322 20.8042 205.482 20.0202 205.594 19.5722L206.634 15.7322H209.658L206.282 24.8522C205.594 26.6922 204.154 27.3322 202.842 27.3322C201.754 27.3322 200.922 26.7562 200.922 26.7562ZM213.857 18.2282C213.857 14.9002 216.417 12.3402 219.857 12.3402C222.689 12.3402 224.145 13.9562 224.145 13.9562L222.849 16.0682C222.849 16.0682 221.569 14.9002 219.985 14.9002C217.793 14.9002 216.753 16.5162 216.753 18.1642C216.753 19.8602 217.873 21.6042 219.985 21.6042C221.713 21.6042 223.025 20.1962 223.025 20.1962L224.465 22.2442C224.465 22.2442 222.849 24.1642 219.857 24.1642C216.273 24.1642 213.857 21.6202 213.857 18.2282ZM225.245 19.8442C225.245 17.4282 226.877 15.5402 229.533 15.5402C231.965 15.5402 233.341 17.2362 233.341 19.5242C233.341 19.7962 233.277 20.3882 233.277 20.3882H228.077C228.285 21.3962 229.117 21.8602 229.997 21.8602C231.181 21.8602 232.269 21.0282 232.269 21.0282L233.293 22.9642C233.293 22.9642 231.965 24.1642 229.773 24.1642C226.829 24.1642 225.245 22.0362 225.245 19.8442ZM228.141 18.8042H230.557C230.557 18.1802 230.125 17.6202 229.469 17.6202C228.669 17.6202 228.285 18.1962 228.141 18.8042ZM234.852 23.9722V15.7322H237.508V16.4522C237.508 16.7242 237.476 16.9642 237.476 16.9642H237.508C237.892 16.3242 238.676 15.5402 240.132 15.5402C241.796 15.5402 243.092 16.3082 243.092 18.6282V23.9722H240.324V19.1402C240.324 18.3722 240.02 18.0522 239.412 18.0522C238.548 18.0522 238.02 18.5322 237.78 19.2362C237.668 19.5562 237.62 19.9242 237.62 20.3242V23.9722H234.852ZM245.44 20.9322V18.0362H244.384V15.8762H245.52V13.5082H248.208V15.8762H249.936V18.0362H248.208V20.5642C248.208 21.4922 249.152 21.6202 249.68 21.6202C249.904 21.6202 250.048 21.6042 250.048 21.6042V24.0042C250.048 24.0042 249.744 24.0522 249.296 24.0522C247.984 24.0522 245.44 23.7002 245.44 20.9322ZM251.073 19.8442C251.073 17.4282 252.705 15.5402 255.361 15.5402C257.793 15.5402 259.169 17.2362 259.169 19.5242C259.169 19.7962 259.105 20.3882 259.105 20.3882H253.905C254.113 21.3962 254.945 21.8602 255.825 21.8602C257.009 21.8602 258.097 21.0282 258.097 21.0282L259.121 22.9642C259.121 22.9642 257.793 24.1642 255.601 24.1642C252.657 24.1642 251.073 22.0362 251.073 19.8442ZM253.969 18.8042H256.385C256.385 18.1802 255.953 17.6202 255.297 17.6202C254.497 17.6202 254.113 18.1962 253.969 18.8042ZM260.68 23.9722V15.7322H263.336V17.1242C263.336 17.3962 263.304 17.6362 263.304 17.6362H263.336C263.688 16.5162 264.728 15.5882 265.96 15.5882C266.12 15.5882 266.28 15.6202 266.28 15.6202V18.3402C266.28 18.3402 266.056 18.2922 265.72 18.2922C265.064 18.2922 263.992 18.5002 263.592 19.7322C263.496 20.0362 263.448 20.4042 263.448 20.8522V23.9722H260.68Z" fill="#2A3342"/>
</svg>
